HIERARCHY
ROOT hip
{
  OFFSET 0 0 0
  CHANNELS 6 Xposition Yposition Zposition Zrotation Yrotation Xrotation
  JOINT abdomen
  {
    OFFSET 0 20.6881 -0.73152
    CHANNELS 3 Zrotation Xrotation Yrotation
    JOINT chest
    {
      OFFSET 0 11.7043 -0.48768
      CHANNELS 3 Zrotation Xrotation Yrotation
      JOINT neck
      {
        OFFSET 0 22.1894 -2.19456
        CHANNELS 3 Zrotation Xrotation Yrotation
        JOINT head
        {
          OFFSET -0.24384 7.07133 1.2192
          CHANNELS 3 Zrotation Xrotation Yrotation
          JOINT leftEye
          {
            OFFSET 4.14528 8.04674 8.04672
            CHANNELS 3 Zrotation Xrotation Yrotation
            End Site
            {
              OFFSET 1 0 0
            }
          }
          JOINT rightEye
          {
            OFFSET -3.6576 8.04674 8.04672
            CHANNELS 3 Zrotation Xrotation Yrotation
            End Site
            {
              OFFSET 1 0 0
            }
          }
        }
      }
      JOINT rCollar
      {
        OFFSET -2.68224 19.2634 -4.8768
        CHANNELS 3 Zrotation Xrotation Yrotation
        JOINT rShldr
        {
          OFFSET -8.77824 -1.95073 1.46304
          CHANNELS 3 Zrotation Xrotation Yrotation
          JOINT rForeArm
          {
            OFFSET -28.1742 -1.7115 0.48768
            CHANNELS 3 Zrotation Xrotation Yrotation
            JOINT rHand
            {
              OFFSET -22.5879 0.773209 7.07136
              CHANNELS 3 Zrotation Xrotation Yrotation
              JOINT rThumb1
              {
                OFFSET -1.2192 -0.487915 3.41376
                CHANNELS 3 Zrotation Xrotation Yrotation
                JOINT rThumb2
                {
                  OFFSET -3.37035 -0.52449 3.41376
                  CHANNELS 3 Zrotation Xrotation Yrotation
                  End Site
                  {
                    OFFSET -1.78271 -1.18214 1.43049
                  }
                }
              }
              JOINT rIndex1
              {
                OFFSET -7.75947 0.938293 5.60832
                CHANNELS 3 Zrotation Xrotation Yrotation
                JOINT rIndex2
                {
                  OFFSET -2.54057 -0.884171 1.56538
                  CHANNELS 3 Zrotation Xrotation Yrotation
                  End Site
                  {
                    OFFSET -1.62519 -0.234802 1.16502
                  }
                }
              }
              JOINT rMid1
              {
                OFFSET -8.24714 1.18213 3.41376
                CHANNELS 3 Zrotation Xrotation Yrotation
                JOINT rMid2
                {
                  OFFSET -3.10165 -0.590103 1.0647
                  CHANNELS 3 Zrotation Xrotation Yrotation
                  End Site
                  {
                    OFFSET -2.48547 -0.328903 0.83742
                  }
                }
              }
              JOINT rRing1
              {
                OFFSET -8.82822 0.546677 1.51678
                CHANNELS 3 Zrotation Xrotation Yrotation
                JOINT rRing2
                {
                  OFFSET -2.60934 -0.819778 -0.0198488
                  CHANNELS 3 Zrotation Xrotation Yrotation
                  End Site
                  {
                    OFFSET -2.33842 -0.294052 0.168128
                  }
                }
              }
              JOINT rPinky1
              {
                OFFSET -8.27202 -0.0477905 -0.4584
                CHANNELS 3 Zrotation Xrotation Yrotation
                JOINT rPinky2
                {
                  OFFSET -1.82734 -0.647385 -0.700984
                  CHANNELS 3 Zrotation Xrotation Yrotation
                  End Site
                  {
                    OFFSET -1.69225 -0.51767 -0.607171
                  }
                }
              }
            }
          }
        }
      }
      JOINT lCollar
      {
        OFFSET 2.68224 19.2634 -4.8768
        CHANNELS 3 Zrotation Xrotation Yrotation
        JOINT lShldr
        {
          OFFSET 8.77824 -1.95073 1.46304
          CHANNELS 3 Zrotation Xrotation Yrotation
          JOINT lForeArm
          {
            OFFSET 28.1742 -1.7115 0.48768
            CHANNELS 3 Zrotation Xrotation Yrotation
            JOINT lHand
            {
              OFFSET 22.5879 0.773209 7.07136
              CHANNELS 3 Zrotation Xrotation Yrotation
              JOINT lThumb1
              {
                OFFSET 1.2192 -0.487915 3.41376
                CHANNELS 3 Zrotation Xrotation Yrotation
                JOINT lThumb2
                {
                  OFFSET 3.37035 -0.52449 3.41376
                  CHANNELS 3 Zrotation Xrotation Yrotation
                  End Site
                  {
                    OFFSET 1.78271 -1.18214 1.43049
                  }
                }
              }
              JOINT lIndex1
              {
                OFFSET 7.75947 0.938293 5.60832
                CHANNELS 3 Zrotation Xrotation Yrotation
                JOINT lIndex2
                {
                  OFFSET 2.54057 -0.884171 1.56538
                  CHANNELS 3 Zrotation Xrotation Yrotation
                  End Site
                  {
                    OFFSET 1.62519 -0.234802 1.16502
                  }
                }
              }
              JOINT lMid1
              {
                OFFSET 8.24714 1.18213 3.41376
                CHANNELS 3 Zrotation Xrotation Yrotation
                JOINT lMid2
                {
                  OFFSET 3.10165 -0.590103 1.0647
                  CHANNELS 3 Zrotation Xrotation Yrotation
                  End Site
                  {
                    OFFSET 2.48547 -0.328903 0.83742
                  }
                }
              }
              JOINT lRing1
              {
                OFFSET 8.82822 0.546677 1.51678
                CHANNELS 3 Zrotation Xrotation Yrotation
                JOINT lRing2
                {
                  OFFSET 2.60934 -0.819778 -0.0198488
                  CHANNELS 3 Zrotation Xrotation Yrotation
                  End Site
                  {
                    OFFSET 2.33842 -0.294052 0.168128
                  }
                }
              }
              JOINT lPinky1
              {
                OFFSET 8.27202 -0.0477905 -0.4584
                CHANNELS 3 Zrotation Xrotation Yrotation
                JOINT lPinky2
                {
                  OFFSET 1.82734 -0.647385 -0.700984
                  CHANNELS 3 Zrotation Xrotation Yrotation
                  End Site
                  {
                    OFFSET 1.69225 -0.51767 -0.607171
                  }
                }
              }
            }
          }
        }
      }
    }
  }
  JOINT rButtock
  {
    OFFSET -8.77824 4.35084 1.2192
    CHANNELS 3 Zrotation Xrotation Yrotation
    JOINT rThigh
    {
      OFFSET 0 -1.70687 -2.19456
      CHANNELS 3 Zrotation Xrotation Yrotation
      JOINT rShin
      {
        OFFSET 0 -36.8199 0.73152
        CHANNELS 3 Zrotation Xrotation Yrotation
        JOINT rFoot
        {
          OFFSET 0.73152 -45.1104 -5.12064
          CHANNELS 3 Zrotation Xrotation Yrotation
          End Site
          {
            OFFSET -1.1221 -3.69964 12.103
          }
        }
      }
    }
  }
  JOINT lButtock
  {
    OFFSET 8.77824 4.35084 1.2192
    CHANNELS 3 Zrotation Xrotation Yrotation
    JOINT lThigh
    {
      OFFSET 0 -1.70687 -2.19456
      CHANNELS 3 Zrotation Xrotation Yrotation
      JOINT lShin
      {
        OFFSET 0 -36.8199 0.73152
        CHANNELS 3 Zrotation Xrotation Yrotation
        JOINT lFoot
        {
          OFFSET -0.73152 -45.1104 -5.12064
          CHANNELS 3 Zrotation Xrotation Yrotation
          End Site
          {
            OFFSET 1.1221 -3.69964 12.103
          }
        }
      }
    }
  }
}
MOTION
Frames:	6
Frame Time:	0.03333
0.03490000090096146 73.80489706993103 -3.6404401063919067 -170.8149871826172 9.709693908691406 -174.8829803466797 5.838046550750732 6.389176368713379 4.218061447143555 2.3016021251678467 -7.546121597290039 1.402413010597229 -5.881226062774658 10.693504333496094 -1.0909208059310913 6.028950214385986 -22.300697326660156 -0.33695563673973083 -0.0 0.0 -0.0 -0.0 0.0 -0.0 -0.0 0.0 -0.0 95.63591766357422 55.78661346435547 -26.997507095336914 -27.644697189331055 -41.77090072631836 87.35588836669922 -66.3381576538086 -81.61521911621094 -74.16329956054688 -0.0 0.0 -0.0 -0.0 0.0 -0.0 -0.0 0.0 -0.0 7.730876445770264 5.474894046783447 0.41732466220855713 -0.0 0.0 -0.0 2.9054994583129883 0.9650753736495972 0.10300876200199127 -0.0 0.0 -0.0 10.278595924377441 0.7317469120025635 0.026285571977496147 -0.0 0.0 -0.0 2.221662998199463 -0.7335850596427917 -0.20831838250160217 -0.0 0.0 -0.0 -75.72109985351562 2.7519798278808594 -86.81419372558594 6.442627429962158 -2.2404487133026123 -11.283899307250977 11.514924049377441 65.5604476928711 -17.886028289794922 -0.0 0.0 -0.0 -0.0 0.0 -0.0 -0.0 0.0 -0.0 -7.730876445770264 5.474894046783447 -0.41732466220855713 -0.0 0.0 -0.0 -2.9054994583129883 0.9650753736495972 -0.10300876200199127 -0.0 0.0 -0.0 -10.278595924377441 0.7317469120025635 -0.026285571977496147 -0.0 0.0 -0.0 -2.221662998199463 -0.7335850596427917 0.20831838250160217 -0.0 0.0 -0.0 8.66658878326416 3.318934679031372 -3.0443930625915527 -0.3336494266986847 41.24699020385742 0.9427031874656677 1.7335418462753296 -18.063703536987305 5.52108097076416 -0.0 0.0 -0.0 32.4684944152832 -56.09868240356445 39.77529525756836 0.408368319272995 38.9076042175293 -0.028373895213007927 -5.176596641540527 19.69959259033203 18.853395462036133
-0.2234999876236543 73.65520000457764 -7.0762112736701965 -170.14796447753906 10.49947738647461 -174.36996459960938 6.985742092132568 4.662373065948486 4.761747360229492 1.8971338272094727 -6.12951135635376 1.5038268566131592 -5.217289924621582 10.782702445983887 -0.6766261458396912 6.340319633483887 -21.97049903869629 0.4762893319129944 -0.0 0.0 -0.0 -0.0 0.0 -0.0 -0.0 0.0 -0.0 98.14666748046875 51.2200927734375 -32.45499038696289 -27.713193893432617 -41.63630294799805 86.98119354248047 -59.984718322753906 -81.32856750488281 -67.75029754638672 -0.0 0.0 -0.0 -0.0 0.0 -0.0 -0.0 0.0 -0.0 7.730876445770264 5.474894046783447 0.41732466220855713 -0.0 0.0 -0.0 2.9054994583129883 0.9650753736495972 0.10300876200199127 -0.0 0.0 -0.0 10.278595924377441 0.7317469120025635 0.026285571977496147 -0.0 0.0 -0.0 2.221662998199463 -0.7335850596427917 -0.20831838250160217 -0.0 0.0 -0.0 -69.36149597167969 2.7037296295166016 -87.5315933227539 6.542479991912842 -2.2894980907440186 -11.460790634155273 6.306275844573975 55.99574661254883 -11.934041023254395 -0.0 0.0 -0.0 -0.0 0.0 -0.0 -0.0 0.0 -0.0 -7.730876445770264 5.474894046783447 -0.41732466220855713 -0.0 0.0 -0.0 -2.9054994583129883 0.9650753736495972 -0.10300876200199127 -0.0 0.0 -0.0 -10.278595924377441 0.7317469120025635 -0.026285571977496147 -0.0 0.0 -0.0 -2.221662998199463 -0.7335850596427917 0.20831838250160217 -0.0 0.0 -0.0 8.191938400268555 4.654958724975586 -1.3351895809173584 -0.3235601782798767 41.069271087646484 0.9036719799041748 3.5043656826019287 -11.209796905517578 13.022994995117188 -0.0 0.0 -0.0 33.434200286865234 -55.694000244140625 40.5830078125 0.48474201560020447 42.76571273803711 -0.16855712234973907 -3.5818138122558594 14.94958209991455 19.389196395874023
-0.7984999887412414 73.5047996044159 -9.830350242555141 -170.29898071289062 10.974112510681152 -174.16897583007812 6.490085124969482 4.273193836212158 4.468958854675293 1.988491177558899 -5.483828544616699 1.3685386180877686 -4.797794342041016 10.891886711120605 -0.31533506512641907 6.188192844390869 -22.40271759033203 1.1236199140548706 -0.0 0.0 -0.0 -0.0 0.0 -0.0 -0.0 0.0 -0.0 98.45789337158203 48.549110412597656 -35.438194274902344 -27.681987762451172 -41.85049819946289 87.29788970947266 -39.45002365112305 -79.14962005615234 -46.935638427734375 -0.0 0.0 -0.0 -0.0 0.0 -0.0 -0.0 0.0 -0.0 7.730876445770264 5.474894046783447 0.41732466220855713 -0.0 0.0 -0.0 2.9054994583129883 0.9650753736495972 0.10300876200199127 -0.0 0.0 -0.0 10.278595924377441 0.7317469120025635 0.026285571977496147 -0.0 0.0 -0.0 2.221662998199463 -0.7335850596427917 -0.20831838250160217 -0.0 0.0 -0.0 -69.52330017089844 2.4761593341827393 -87.13629913330078 6.408637523651123 -2.2293899059295654 -11.217803955078125 5.327441215515137 52.73640441894531 -10.678979873657227 -0.0 0.0 -0.0 -0.0 0.0 -0.0 -0.0 0.0 -0.0 -7.730876445770264 5.474894046783447 -0.41732466220855713 -0.0 0.0 -0.0 -2.9054994583129883 0.9650753736495972 -0.10300876200199127 -0.0 0.0 -0.0 -10.278595924377441 0.7317469120025635 -0.026285571977496147 -0.0 0.0 -0.0 -2.221662998199463 -0.7335850596427917 0.20831838250160217 -0.0 0.0 -0.0 6.767847061157227 3.564115524291992 -0.12906517088413239 -0.38976553082466125 43.97726058959961 1.002594232559204 2.1912310123443604 -1.730172872543335 17.544105529785156 -0.0 0.0 -0.0 31.958879470825195 -56.42509460449219 38.95559310913086 0.6247615218162537 46.66200256347656 -0.23215219378471375 -2.4297373294830322 11.632087707519531 20.724700927734375
-1.2553999986266717 73.0036973953247 -12.104450166225433 -172.0229949951172 10.160401344299316 -174.65797424316406 4.354430675506592 5.220733165740967 3.3373210430145264 2.5780861377716064 -5.608855724334717 0.996315598487854 -4.6228227615356445 11.021200180053711 -0.0071196346543729305 5.597071647644043 -23.598804473876953 1.615922451019287 -0.0 0.0 -0.0 -0.0 0.0 -0.0 -0.0 0.0 -0.0 97.4317855834961 47.8422966003418 -36.587284088134766 -27.532901763916016 -42.400394439697266 88.3333969116211 -21.00849723815918 -73.3907470703125 -27.98584747314453 -0.0 0.0 -0.0 -0.0 0.0 -0.0 -0.0 0.0 -0.0 7.730876445770264 5.474894046783447 0.41732466220855713 -0.0 0.0 -0.0 2.9054994583129883 0.9650753736495972 0.10300876200199127 -0.0 0.0 -0.0 10.278595924377441 0.7317469120025635 0.026285571977496147 -0.0 0.0 -0.0 2.221662998199463 -0.7335850596427917 -0.20831838250160217 -0.0 0.0 -0.0 -76.17940521240234 1.6101986169815063 -85.70869445800781 6.038082122802734 -2.059803009033203 -10.555100440979004 6.433107852935791 55.95521926879883 -12.036141395568848 -0.0 0.0 -0.0 -0.0 0.0 -0.0 -0.0 0.0 -0.0 -7.730876445770264 5.474894046783447 -0.41732466220855713 -0.0 0.0 -0.0 -2.9054994583129883 0.9650753736495972 -0.10300876200199127 -0.0 0.0 -0.0 -10.278595924377441 0.7317469120025635 -0.026285571977496147 -0.0 0.0 -0.0 -2.221662998199463 -0.7335850596427917 0.20831838250160217 -0.0 0.0 -0.0 4.518524646759033 0.05039540305733681 0.5676936507225037 -0.5349006056785583 49.970489501953125 1.2672408819198608 -1.5288681983947754 10.272420883178711 19.87652587890625 -0.0 0.0 -0.0 27.742412567138672 -58.19449234008789 34.60731506347656 0.7982718348503113 50.59669494628906 -0.19490137696266174 -1.6930272579193115 9.741872787475586 22.77437400817871
-1.6891999955987558 72.51229882240295 -14.497080259025097 -173.9029998779297 7.855307102203369 -175.77197265625 1.8192216157913208 7.058213710784912 1.975437045097351 3.1746203899383545 -5.927354335784912 0.5506924986839294 -4.487632751464844 10.913986206054688 0.22320960462093353 4.94573450088501 -24.29489517211914 1.946512222290039 -0.0 0.0 -0.0 -0.0 0.0 -0.0 -0.0 0.0 -0.0 96.47207641601562 47.07429122924805 -36.61259078979492 -27.37769889831543 -42.914894104003906 89.32158660888672 -16.181007385253906 -70.09455871582031 -22.888469696044922 -0.0 0.0 -0.0 -0.0 0.0 -0.0 -0.0 0.0 -0.0 7.730876445770264 5.474894046783447 0.41732466220855713 -0.0 0.0 -0.0 2.9054994583129883 0.9650753736495972 0.10300876200199127 -0.0 0.0 -0.0 10.278595924377441 0.7317469120025635 0.026285571977496147 -0.0 0.0 -0.0 2.221662998199463 -0.7335850596427917 -0.20831838250160217 -0.0 0.0 -0.0 -76.78981018066406 0.7084931135177612 -85.06640625 6.219819068908691 -2.1453373432159424 -10.876392364501953 5.535301685333252 53.691856384277344 -10.980687141418457 -0.0 0.0 -0.0 -0.0 0.0 -0.0 -0.0 0.0 -0.0 -7.730876445770264 5.474894046783447 -0.41732466220855713 -0.0 0.0 -0.0 -2.9054994583129883 0.9650753736495972 -0.10300876200199127 -0.0 0.0 -0.0 -10.278595924377441 0.7317469120025635 -0.026285571977496147 -0.0 0.0 -0.0 -2.221662998199463 -0.7335850596427917 0.20831838250160217 -0.0 0.0 -0.0 2.342944622039795 -4.4449920654296875 0.5332708358764648 -0.9086916446685791 57.80072021484375 1.6459890604019165 -3.6399903297424316 16.771778106689453 20.311006546020508 -0.0 0.0 -0.0 22.178272247314453 -58.648712158203125 30.083881378173828 0.9324521422386169 53.23930740356445 -0.13321256637573242 -0.9687641263008118 8.217056274414062 23.640817642211914
-2.1769999846583232 72.29049801826477 -16.88180025666952 -175.9080352783203 6.127320766448975 -177.1290283203125 -1.0287426710128784 9.78437328338623 0.373035192489624 3.7723464965820312 -6.439381122589111 0.02951255813241005 -4.389660835266113 10.570501327514648 0.37483879923820496 4.218338489532471 -24.49228858947754 2.1089682579040527 -0.0 0.0 -0.0 -0.0 0.0 -0.0 -0.0 0.0 -0.0 95.63858795166016 46.2378044128418 -35.566383361816406 -27.220691680908203 -43.398101806640625 90.25639343261719 -16.0714111328125 -70.02342224121094 -22.771665573120117 -0.0 0.0 -0.0 -0.0 0.0 -0.0 -0.0 0.0 -0.0 7.730876445770264 5.474894046783447 0.41732466220855713 -0.0 0.0 -0.0 2.9054994583129883 0.9650753736495972 0.10300876200199127 -0.0 0.0 -0.0 10.278595924377441 0.7317469120025635 0.026285571977496147 -0.0 0.0 -0.0 2.221662998199463 -0.7335850596427917 -0.20831838250160217 -0.0 0.0 -0.0 -71.39559173583984 0.3177078664302826 -85.02130126953125 6.944968223571777 -2.4837236404418945 -12.182300567626953 3.495631694793701 45.871307373046875 -8.29991340637207 -0.0 0.0 -0.0 -0.0 0.0 -0.0 -0.0 0.0 -0.0 -7.730876445770264 5.474894046783447 -0.41732466220855713 -0.0 0.0 -0.0 -2.9054994583129883 0.9650753736495972 -0.10300876200199127 -0.0 0.0 -0.0 -10.278595924377441 0.7317469120025635 -0.026285571977496147 -0.0 0.0 -0.0 -2.221662998199463 -0.7335850596427917 0.20831838250160217 -0.0 0.0 -0.0 0.06567639112472534 -9.913331985473633 -0.24071826040744781 -1.655001163482666 67.46723937988281 2.318915367126465 -3.2299957275390625 18.03870391845703 18.051298141479492 -0.0 0.0 -0.0 15.788012504577637 -57.77119827270508 25.85254669189453 1.0334092378616333 54.58989715576172 -0.0560779832303524 -0.36291053891181946 7.025403022766113 23.332107543945312
